<svg width="19" height="20" viewBox="0 0 19 20" fill="none" xmlns="http://www.w3.org/2000/svg">
<path d="M7.12484 14.7502V13.7502C6.57255 13.7502 6.12484 14.1979 6.12484 14.7502H7.12484ZM11.8748 14.7502H12.8748C12.8748 14.1979 12.4271 13.7502 11.8748 13.7502V14.7502ZM6.33317 4.25016C5.78089 4.25016 5.33317 4.69788 5.33317 5.25016C5.33317 5.80245 5.78089 6.25016 6.33317 6.25016V4.25016ZM6.34109 6.25016C6.89337 6.25016 7.34109 5.80245 7.34109 5.25016C7.34109 4.69788 6.89337 4.25016 6.34109 4.25016V6.25016ZM12.6665 4.25016C12.1142 4.25016 11.6665 4.69788 11.6665 5.25016C11.6665 5.80245 12.1142 6.25016 12.6665 6.25016V4.25016ZM12.6744 6.25016C13.2267 6.25016 13.6744 5.80245 13.6744 5.25016C13.6744 4.69788 13.2267 4.25016 12.6744 4.25016V6.25016ZM9.49984 4.25016C8.94755 4.25016 8.49984 4.69788 8.49984 5.25016C8.49984 5.80245 8.94755 6.25016 9.49984 6.25016V4.25016ZM9.50775 6.25016C10.06 6.25016 10.5078 5.80245 10.5078 5.25016C10.5078 4.69788 10.06 4.25016 9.50775 4.25016V6.25016ZM9.49984 7.41683C8.94755 7.41683 8.49984 7.86454 8.49984 8.41683C8.49984 8.96911 8.94755 9.41683 9.49984 9.41683V7.41683ZM9.50775 9.41683C10.06 9.41683 10.5078 8.96911 10.5078 8.41683C10.5078 7.86454 10.06 7.41683 9.50775 7.41683V9.41683ZM9.49984 10.5835C8.94755 10.5835 8.49984 11.0312 8.49984 11.5835C8.49984 12.1358 8.94755 12.5835 9.49984 12.5835V10.5835ZM9.50775 12.5835C10.06 12.5835 10.5078 12.1358 10.5078 11.5835C10.5078 11.0312 10.06 10.5835 9.50775 10.5835V12.5835ZM12.6665 7.41683C12.1142 7.41683 11.6665 7.86454 11.6665 8.41683C11.6665 8.96911 12.1142 9.41683 12.6665 9.41683V7.41683ZM12.6744 9.41683C13.2267 9.41683 13.6744 8.96911 13.6744 8.41683C13.6744 7.86454 13.2267 7.41683 12.6744 7.41683V9.41683ZM12.6665 10.5835C12.1142 10.5835 11.6665 11.0312 11.6665 11.5835C11.6665 12.1358 12.1142 12.5835 12.6665 12.5835V10.5835ZM12.6744 12.5835C13.2267 12.5835 13.6744 12.1358 13.6744 11.5835C13.6744 11.0312 13.2267 10.5835 12.6744 10.5835V12.5835ZM6.33317 7.41683C5.78089 7.41683 5.33317 7.86454 5.33317 8.41683C5.33317 8.96911 5.78089 9.41683 6.33317 9.41683V7.41683ZM6.34109 9.41683C6.89337 9.41683 7.34109 8.96911 7.34109 8.41683C7.34109 7.86454 6.89337 7.41683 6.34109 7.41683V9.41683ZM6.33317 10.5835C5.78089 10.5835 5.33317 11.0312 5.33317 11.5835C5.33317 12.1358 5.78089 12.5835 6.33317 12.5835V10.5835ZM6.34109 12.5835C6.89337 12.5835 7.34109 12.1358 7.34109 11.5835C7.34109 11.0312 6.89337 10.5835 6.34109 10.5835V12.5835ZM4.74984 3.0835H14.2498V1.0835H4.74984V3.0835ZM14.2498 3.0835C14.572 3.0835 14.8332 3.34466 14.8332 3.66683H16.8332C16.8332 2.24009 15.6766 1.0835 14.2498 1.0835V3.0835ZM14.8332 3.66683V16.3335H16.8332V3.66683H14.8332ZM14.8332 16.3335C14.8332 16.6557 14.572 16.9168 14.2498 16.9168V18.9168C15.6766 18.9168 16.8332 17.7602 16.8332 16.3335H14.8332ZM14.2498 16.9168H4.74984V18.9168H14.2498V16.9168ZM4.74984 16.9168C4.42767 16.9168 4.1665 16.6557 4.1665 16.3335H2.1665C2.1665 17.7602 3.3231 18.9168 4.74984 18.9168V16.9168ZM4.1665 16.3335V3.66683H2.1665V16.3335H4.1665ZM4.1665 3.66683C4.1665 3.34466 4.42767 3.0835 4.74984 3.0835V1.0835C3.3231 1.0835 2.1665 2.24009 2.1665 3.66683H4.1665ZM8.12484 17.9168V14.7502H6.12484V17.9168H8.12484ZM7.12484 15.7502H11.8748V13.7502H7.12484V15.7502ZM10.8748 14.7502V17.9168H12.8748V14.7502H10.8748ZM6.33317 6.25016H6.34109V4.25016H6.33317V6.25016ZM12.6665 6.25016H12.6744V4.25016H12.6665V6.25016ZM9.49984 6.25016H9.50775V4.25016H9.49984V6.25016ZM9.49984 9.41683H9.50775V7.41683H9.49984V9.41683ZM9.49984 12.5835H9.50775V10.5835H9.49984V12.5835ZM12.6665 9.41683H12.6744V7.41683H12.6665V9.41683ZM12.6665 12.5835H12.6744V10.5835H12.6665V12.5835ZM6.33317 9.41683H6.34109V7.41683H6.33317V9.41683ZM6.33317 12.5835H6.34109V10.5835H6.33317V12.5835Z" fill="white"/>
</svg>
