<svg width="80" height="80" viewBox="0 0 80 80" fill="none" xmlns="http://www.w3.org/2000/svg">
<path d="M64.9999 33.1331C68.1024 34.9208 70.7519 37.3986 72.7431 40.3746C74.7343 43.3506 76.0139 46.7449 76.4828 50.2948C76.9517 53.8447 76.5973 57.4549 75.447 60.8458C74.2968 64.2368 72.3815 67.3175 69.8495 69.8494C67.3176 72.3814 64.2369 74.2966 60.846 75.4469C57.455 76.5972 53.8448 76.9516 50.295 76.4827C46.7451 76.0138 43.3507 74.7342 40.3747 72.743C37.3987 70.7517 34.921 68.1023 33.1332 64.9998M23.3332 19.9999H26.6666V33.3332M57.6666 47.6667L59.9999 50L50.6666 59.3334M49.9999 26.6666C49.9999 39.5532 39.5532 49.9999 26.6666 49.9999C13.7799 49.9999 3.33325 39.5532 3.33325 26.6666C3.33325 13.7799 13.7799 3.33325 26.6666 3.33325C39.5532 3.33325 49.9999 13.7799 49.9999 26.6666Z" stroke="white" stroke-width="3" stroke-linejoin="round"/>
</svg>
