<svg width="80" height="80" viewBox="0 0 80 80" fill="none" xmlns="http://www.w3.org/2000/svg">
<path d="M23.3335 66.6666H56.6668M33.3335 66.6666C51.6668 58.3332 36.0001 45.3332 43.3335 33.3332M43.3335 33.3332C43.1804 28.6204 44.4588 23.9718 47.0002 19.9999C50.0002 16.6666 54.3335 13.6666 63.3335 13.3333C63.0002 20.9999 61.0002 25.3332 57.6668 28.6666C54.3335 31.3332 49.6668 32.9999 43.3335 33.3332ZM31.6668 31.3332C35.3335 33.9999 37.6668 38.6665 39.3335 43.6665C32.6668 44.9999 27.6668 44.9999 23.3335 42.6665C19.3335 40.6665 15.6668 36.3332 13.3335 28.6665C22.6668 26.9999 28.0002 28.6665 31.6668 31.3332Z" stroke="white" stroke-width="3" stroke-linejoin="round"/>
</svg>
