<svg width="80" height="80" viewBox="0 0 80 80" fill="none" xmlns="http://www.w3.org/2000/svg">
<path d="M39.9935 41.1599V49.4932M39.9935 49.4932H16.6602V57.8266M39.9935 49.4932H63.3268V57.8266M39.9935 49.4932V57.8266M39.9935 57.8266H30.9935V75.8266H48.9935V57.8266H39.9935ZM53.9935 57.8266H72.3268V75.8266H53.9935V57.8266ZM7.66016 57.8266H25.6602V75.8266H7.66016V57.8266ZM40.4019 4.15991H39.5952C38.6227 4.15991 37.6899 4.54626 37.0022 5.23395C36.3146 5.92165 35.9282 6.85436 35.9282 7.82691V8.15694C35.9275 8.8 35.7578 9.43157 35.436 9.98831C35.1142 10.545 34.6516 11.0074 34.0947 11.3289L33.3063 11.7873C32.7488 12.1091 32.1165 12.2786 31.4728 12.2786C30.8291 12.2786 30.1968 12.1091 29.6393 11.7873L29.3643 11.6406C28.5228 11.1552 27.5231 11.0235 26.5847 11.2745C25.6462 11.5254 24.8457 12.1385 24.3588 12.979L23.9555 13.6758C23.4701 14.5172 23.3384 15.5169 23.5893 16.4554C23.8403 17.3938 24.4533 18.1943 25.2939 18.6812L25.5689 18.8646C26.1232 19.1845 26.584 19.644 26.9056 20.1972C27.2273 20.7505 27.3986 21.3783 27.4024 22.0182V22.9533C27.405 23.5994 27.2368 24.2348 26.9148 24.795C26.5928 25.3553 26.1285 25.8205 25.5689 26.1436L25.2939 26.3086C24.4533 26.7955 23.8403 27.596 23.5893 28.5345C23.3384 29.4729 23.4701 30.4726 23.9555 31.314L24.3588 32.0108C24.8457 32.8514 25.6462 33.4644 26.5847 33.7154C27.5231 33.9663 28.5228 33.8346 29.3643 33.3492L29.6393 33.2025C30.1968 32.8807 30.8291 32.7113 31.4728 32.7113C32.1165 32.7113 32.7488 32.8807 33.3063 33.2025L34.0947 33.6609C34.6516 33.9825 35.1142 34.4448 35.436 35.0015C35.7578 35.5582 35.9275 36.1898 35.9282 36.8329V37.1629C35.9282 38.1355 36.3146 39.0682 37.0022 39.7559C37.6899 40.4436 38.6227 40.8299 39.5952 40.8299H40.4019C41.3745 40.8299 42.3072 40.4436 42.9949 39.7559C43.6826 39.0682 44.0689 38.1355 44.0689 37.1629V36.8329C44.0696 36.1898 44.2394 35.5582 44.5612 35.0015C44.883 34.4448 45.3455 33.9825 45.9024 33.6609L46.6908 33.2025C47.2483 32.8807 47.8807 32.7113 48.5244 32.7113C49.168 32.7113 49.8004 32.8807 50.3578 33.2025L50.6329 33.3492C51.4743 33.8346 52.474 33.9663 53.4125 33.7154C54.3509 33.4644 55.1514 32.8514 55.6383 32.0108L56.0417 31.2957C56.5271 30.4542 56.6588 29.4546 56.4078 28.5161C56.1569 27.5777 55.5438 26.7771 54.7032 26.2903L54.4282 26.1436C53.8686 25.8205 53.4043 25.3553 53.0824 24.795C52.7604 24.2348 52.5922 23.5994 52.5947 22.9533V22.0365C52.5922 21.3904 52.7604 20.755 53.0824 20.1948C53.4043 19.6345 53.8686 19.1693 54.4282 18.8462L54.7032 18.6812C55.5438 18.1943 56.1569 17.3938 56.4078 16.4554C56.6588 15.5169 56.5271 14.5172 56.0417 13.6758L55.6383 12.979C55.1514 12.1385 54.3509 11.5254 53.4125 11.2745C52.474 11.0235 51.4743 11.1552 50.6329 11.6406L50.3578 11.7873C49.8004 12.1091 49.168 12.2786 48.5244 12.2786C47.8807 12.2786 47.2483 12.1091 46.6908 11.7873L45.9024 11.3289C45.3455 11.0074 44.883 10.545 44.5612 9.98831C44.2394 9.43157 44.0696 8.8 44.0689 8.15694V7.82691C44.0689 6.85436 43.6826 5.92165 42.9949 5.23395C42.3072 4.54626 41.3745 4.15991 40.4019 4.15991ZM45.4991 22.4949C45.4991 25.5327 43.0364 27.9954 39.9986 27.9954C36.9607 27.9954 34.4981 25.5327 34.4981 22.4949C34.4981 19.4571 36.9607 16.9944 39.9986 16.9944C43.0364 16.9944 45.4991 19.4571 45.4991 22.4949Z" stroke="white" stroke-width="3" stroke-linecap="round" stroke-linejoin="round"/>
</svg>
