<svg width="80" height="80" viewBox="0 0 80 80" fill="none" xmlns="http://www.w3.org/2000/svg">
<path d="M23.3334 73.3334H13.3334C11.5653 73.3334 9.86961 72.631 8.61937 71.3808C7.36913 70.1305 6.66675 68.4348 6.66675 66.6667V43.3334C6.66675 41.5653 7.36913 39.8696 8.61937 38.6194C9.86961 37.3691 11.5653 36.6667 13.3334 36.6667H23.3334M46.6667 30.0001V16.6667C46.6667 14.0146 45.6132 11.471 43.7378 9.59568C41.8624 7.72032 39.3189 6.66675 36.6667 6.66675L23.3334 36.6667V73.3334H60.9334C62.5412 73.3516 64.1013 72.7881 65.3264 71.7468C66.5515 70.7054 67.359 69.2564 67.6001 67.6667L72.2001 37.6667C72.3451 36.7113 72.2807 35.7357 72.0112 34.8076C71.7418 33.8795 71.2737 33.0211 70.6396 32.2918C70.0055 31.5625 69.2203 30.9798 68.3386 30.5841C67.457 30.1884 66.4998 29.9891 65.5334 30.0001H46.6667Z" stroke="white" stroke-width="3" stroke-linejoin="round"/>
</svg>
