<svg width="80" height="80" viewBox="0 0 80 80" fill="none" xmlns="http://www.w3.org/2000/svg">
<path d="M31.6668 50.9999H48.3335M15.0002 50.9999H8.3335V18.9999C8.3335 18.9999 41.789 18.9999 60.8668 18.9999C62.1093 18.9913 63.3294 19.33 64.3896 19.9779C65.4497 20.6258 66.3078 21.557 66.8668 22.6666L69.5335 28.0999C70.933 30.8819 71.6635 33.9524 71.6668 37.0666V50.9999H65.0002M31.6668 52.6666C31.6668 57.269 27.9359 60.9999 23.3335 60.9999C18.7311 60.9999 15.0002 57.269 15.0002 52.6666C15.0002 48.0642 18.7311 44.3332 23.3335 44.3332C27.9359 44.3332 31.6668 48.0642 31.6668 52.6666ZM65.0002 52.6666C65.0002 57.269 61.2692 60.9999 56.6668 60.9999C52.0645 60.9999 48.3335 57.269 48.3335 52.6666C48.3335 48.0642 52.0645 44.3332 56.6668 44.3332C61.2692 44.3332 65.0002 48.0642 65.0002 52.6666Z" stroke="white" stroke-width="3" stroke-linecap="round" stroke-linejoin="round"/>
</svg>
